<svg width="30" height="30" viewBox="0 0 30 30" fill="none" xmlns="http://www.w3.org/2000/svg">
<g id="ui-basic-write-edit-pen-pencil-svgrepo-com 2">
<g id="Layer 42">
<path id="Vector" d="M5.44692 25.4905C5.32353 25.4912 5.20123 25.4676 5.087 25.4209C4.97278 25.3743 4.86889 25.3055 4.78129 25.2186C4.67155 25.1104 4.59018 24.9768 4.5444 24.8296C4.49861 24.6825 4.48982 24.5263 4.51879 24.3749L5.70004 16.5655C5.72909 16.3669 5.8211 16.1829 5.96254 16.0405L17.3813 4.6874C17.9178 4.17833 18.6292 3.89453 19.3688 3.89453C20.1084 3.89453 20.8198 4.17833 21.3563 4.6874L25.3125 8.64365C25.8392 9.17099 26.1351 9.88583 26.1351 10.6311C26.1351 11.3765 25.8392 12.0913 25.3125 12.6186L13.9219 24.0374C13.7795 24.1788 13.5955 24.2708 13.3969 24.2999L5.62504 25.4811L5.44692 25.4905ZM7.50004 17.1936L6.56254 23.4374L12.8063 22.4999L24.0563 11.3061C24.1432 11.2185 24.2119 11.1147 24.2586 11.0004C24.3052 10.8862 24.3289 10.7639 24.3282 10.6405C24.3271 10.3946 24.2295 10.1589 24.0563 9.98427L20.025 5.99052C19.8494 5.81591 19.6118 5.7179 19.3641 5.7179C19.1164 5.7179 18.8788 5.81591 18.7032 5.99052L7.50004 17.1936Z" fill="black"/>
<path id="Vector_2" d="M23.3438 14.2218C23.2204 14.2225 23.0981 14.1989 22.9838 14.1522C22.8696 14.1056 22.7657 14.0368 22.6781 13.9499L16.05 7.3218C15.9626 7.23439 15.8933 7.13062 15.8459 7.01641C15.7986 6.90221 15.7743 6.7798 15.7743 6.65618C15.7743 6.53256 15.7986 6.41015 15.8459 6.29595C15.8933 6.18174 15.9626 6.07797 16.05 5.99055C16.1374 5.90314 16.2412 5.83381 16.3554 5.7865C16.4696 5.73919 16.592 5.71484 16.7156 5.71484C16.8392 5.71484 16.9617 5.73919 17.0759 5.7865C17.1901 5.83381 17.2938 5.90314 17.3813 5.99055L24.0094 12.6187C24.0972 12.7058 24.167 12.8095 24.2146 12.9238C24.2622 13.038 24.2867 13.1605 24.2867 13.2843C24.2867 13.4081 24.2622 13.5306 24.2146 13.6448C24.167 13.7591 24.0972 13.8628 24.0094 13.9499C23.9218 14.0368 23.8179 14.1056 23.7037 14.1522C23.5894 14.1989 23.4671 14.2225 23.3438 14.2218Z" fill="black"/>
<path id="Vector_3" d="M23.4375 28.125H4.6875C4.43886 28.125 4.2004 28.0262 4.02459 27.8504C3.84877 27.6746 3.75 27.4361 3.75 27.1875C3.75 26.9389 3.84877 26.7004 4.02459 26.5246C4.2004 26.3488 4.43886 26.25 4.6875 26.25H23.4375C23.6861 26.25 23.9246 26.3488 24.1004 26.5246C24.2762 26.7004 24.375 26.9389 24.375 27.1875C24.375 27.4361 24.2762 27.6746 24.1004 27.8504C23.9246 28.0262 23.6861 28.125 23.4375 28.125Z" fill="black"/>
<path id="Vector_4" d="M10.7438 13.9031L5.98127 18.5343C4.87502 19.6312 5.28752 22.5187 6.38439 23.6156C7.48127 24.7125 10.4813 24.9843 11.5781 23.8875L17.2031 18.1687C17.2031 18.1687 11.8313 20.5687 10.575 19.1625C9.31877 17.7562 10.7438 13.9031 10.7438 13.9031Z" fill="black"/>
</g>
</g>
</svg>
